<svg width="156" height="47" viewBox="0 0 156 47" fill="none" xmlns="http://www.w3.org/2000/svg">
<path d="M52.2596 10.45V28H47.9846V10.45H52.2596ZM73.1576 13.9C74.891 13.9 76.266 14.425 77.2826 15.475C78.316 16.525 78.8326 17.9833 78.8326 19.85V28H74.5826V20.425C74.5826 19.525 74.341 18.8333 73.8576 18.35C73.391 17.85 72.741 17.6 71.9076 17.6C71.0743 17.6 70.416 17.85 69.9326 18.35C69.466 18.8333 69.2326 19.525 69.2326 20.425V28H64.9826V20.425C64.9826 19.525 64.741 18.8333 64.2576 18.35C63.791 17.85 63.141 17.6 62.3076 17.6C61.4743 17.6 60.816 17.85 60.3326 18.35C59.866 18.8333 59.6326 19.525 59.6326 20.425V28H55.3576V14.05H59.6326V15.8C60.066 15.2167 60.6326 14.7583 61.3326 14.425C62.0326 14.075 62.8243 13.9 63.7076 13.9C64.7576 13.9 65.691 14.125 66.5076 14.575C67.341 15.025 67.991 15.6667 68.4576 16.5C68.941 15.7333 69.5993 15.1083 70.4326 14.625C71.266 14.1417 72.1743 13.9 73.1576 13.9ZM88.1725 28.2C86.8058 28.2 85.5725 27.9083 84.4725 27.325C83.3891 26.7417 82.5308 25.9083 81.8975 24.825C81.2808 23.7417 80.9725 22.475 80.9725 21.025C80.9725 19.5917 81.2891 18.3333 81.9225 17.25C82.5558 16.15 83.4225 15.3083 84.5225 14.725C85.6225 14.1417 86.8558 13.85 88.2225 13.85C89.5891 13.85 90.8225 14.1417 91.9225 14.725C93.0225 15.3083 93.8891 16.15 94.5225 17.25C95.1558 18.3333 95.4725 19.5917 95.4725 21.025C95.4725 22.4583 95.1475 23.725 94.4975 24.825C93.8641 25.9083 92.9891 26.7417 91.8725 27.325C90.7725 27.9083 89.5391 28.2 88.1725 28.2ZM88.1725 24.5C88.9891 24.5 89.6808 24.2 90.2475 23.6C90.8308 23 91.1225 22.1417 91.1225 21.025C91.1225 19.9083 90.8391 19.05 90.2725 18.45C89.7225 17.85 89.0391 17.55 88.2225 17.55C87.3891 17.55 86.6975 17.85 86.1475 18.45C85.5975 19.0333 85.3225 19.8917 85.3225 21.025C85.3225 22.1417 85.5891 23 86.1225 23.6C86.6725 24.2 87.3558 24.5 88.1725 24.5ZM102.015 16.025C102.415 15.375 102.99 14.85 103.74 14.45C104.49 14.05 105.349 13.85 106.315 13.85C107.465 13.85 108.507 14.1417 109.44 14.725C110.374 15.3083 111.107 16.1417 111.64 17.225C112.19 18.3083 112.465 19.5667 112.465 21C112.465 22.4333 112.19 23.7 111.64 24.8C111.107 25.8833 110.374 26.725 109.44 27.325C108.507 27.9083 107.465 28.2 106.315 28.2C105.332 28.2 104.474 28.0083 103.74 27.625C103.007 27.225 102.432 26.7 102.015 26.05V28H97.7404V9.5H102.015V16.025ZM108.115 21C108.115 19.9333 107.815 19.1 107.215 18.5C106.632 17.8833 105.907 17.575 105.04 17.575C104.19 17.575 103.465 17.8833 102.865 18.5C102.282 19.1167 101.99 19.9583 101.99 21.025C101.99 22.0917 102.282 22.9333 102.865 23.55C103.465 24.1667 104.19 24.475 105.04 24.475C105.89 24.475 106.615 24.1667 107.215 23.55C107.815 22.9167 108.115 22.0667 108.115 21ZM116.858 12.6C116.108 12.6 115.492 12.3833 115.008 11.95C114.542 11.5 114.308 10.95 114.308 10.3C114.308 9.63333 114.542 9.08333 115.008 8.65C115.492 8.2 116.108 7.975 116.858 7.975C117.592 7.975 118.192 8.2 118.658 8.65C119.142 9.08333 119.383 9.63333 119.383 10.3C119.383 10.95 119.142 11.5 118.658 11.95C118.192 12.3833 117.592 12.6 116.858 12.6ZM118.983 14.05V28H114.708V14.05H118.983ZM126.356 9.5V28H122.081V9.5H126.356ZM128.604 21C128.604 19.5667 128.871 18.3083 129.404 17.225C129.954 16.1417 130.696 15.3083 131.629 14.725C132.563 14.1417 133.604 13.85 134.754 13.85C135.738 13.85 136.596 14.05 137.329 14.45C138.079 14.85 138.654 15.375 139.054 16.025V14.05H143.329V28H139.054V26.025C138.638 26.675 138.054 27.2 137.304 27.6C136.571 28 135.713 28.2 134.729 28.2C133.596 28.2 132.563 27.9083 131.629 27.325C130.696 26.725 129.954 25.8833 129.404 24.8C128.871 23.7 128.604 22.4333 128.604 21ZM139.054 21.025C139.054 19.9583 138.754 19.1167 138.154 18.5C137.571 17.8833 136.854 17.575 136.004 17.575C135.154 17.575 134.429 17.8833 133.829 18.5C133.246 19.1 132.954 19.9333 132.954 21C132.954 22.0667 133.246 22.9167 133.829 23.55C134.429 24.1667 135.154 24.475 136.004 24.475C136.854 24.475 137.571 24.1667 138.154 23.55C138.754 22.9333 139.054 22.0917 139.054 21.025ZM150.697 16.375C151.197 15.6083 151.822 15.0083 152.572 14.575C153.322 14.125 154.155 13.9 155.072 13.9V18.425H153.897C152.83 18.425 152.03 18.6583 151.497 19.125C150.964 19.575 150.697 20.375 150.697 21.525V28H146.422V14.05H150.697V16.375ZM48.6747 39.51C48.6747 38.83 48.8314 38.22 49.1447 37.68C49.4647 37.14 49.8947 36.72 50.4347 36.42C50.9814 36.1133 51.578 35.96 52.2247 35.96C52.9647 35.96 53.6214 36.1433 54.1947 36.51C54.7747 36.87 55.1947 37.3833 55.4547 38.05H54.0847C53.9047 37.6833 53.6547 37.41 53.3347 37.23C53.0147 37.05 52.6447 36.96 52.2247 36.96C51.7647 36.96 51.3547 37.0633 50.9947 37.27C50.6347 37.4767 50.3514 37.7733 50.1447 38.16C49.9447 38.5467 49.8447 38.9967 49.8447 39.51C49.8447 40.0233 49.9447 40.4733 50.1447 40.86C50.3514 41.2467 50.6347 41.5467 50.9947 41.76C51.3547 41.9667 51.7647 42.07 52.2247 42.07C52.6447 42.07 53.0147 41.98 53.3347 41.8C53.6547 41.62 53.9047 41.3467 54.0847 40.98H55.4547C55.1947 41.6467 54.7747 42.16 54.1947 42.52C53.6214 42.88 52.9647 43.06 52.2247 43.06C51.5714 43.06 50.9747 42.91 50.4347 42.61C49.8947 42.3033 49.4647 41.88 49.1447 41.34C48.8314 40.8 48.6747 40.19 48.6747 39.51ZM59.1791 43.09C58.6591 43.09 58.1891 42.9733 57.7691 42.74C57.3491 42.5 57.0191 42.1667 56.7791 41.74C56.5391 41.3067 56.4191 40.8067 56.4191 40.24C56.4191 39.68 56.5424 39.1833 56.7891 38.75C57.0357 38.3167 57.3724 37.9833 57.7991 37.75C58.2257 37.5167 58.7024 37.4 59.2291 37.4C59.7557 37.4 60.2324 37.5167 60.6591 37.75C61.0857 37.9833 61.4224 38.3167 61.6691 38.75C61.9157 39.1833 62.0391 39.68 62.0391 40.24C62.0391 40.8 61.9124 41.2967 61.6591 41.73C61.4057 42.1633 61.0591 42.5 60.6191 42.74C60.1857 42.9733 59.7057 43.09 59.1791 43.09ZM59.1791 42.1C59.4724 42.1 59.7457 42.03 59.9991 41.89C60.2591 41.75 60.4691 41.54 60.6291 41.26C60.7891 40.98 60.8691 40.64 60.8691 40.24C60.8691 39.84 60.7924 39.5033 60.6391 39.23C60.4857 38.95 60.2824 38.74 60.0291 38.6C59.7757 38.46 59.5024 38.39 59.2091 38.39C58.9157 38.39 58.6424 38.46 58.3891 38.6C58.1424 38.74 57.9457 38.95 57.7991 39.23C57.6524 39.5033 57.5791 39.84 57.5791 40.24C57.5791 40.8333 57.7291 41.2933 58.0291 41.62C58.3357 41.94 58.7191 42.1 59.1791 42.1ZM64.306 38.29C64.4727 38.01 64.6927 37.7933 64.966 37.64C65.246 37.48 65.576 37.4 65.956 37.4V38.58H65.666C65.2193 38.58 64.8793 38.6933 64.646 38.92C64.4193 39.1467 64.306 39.54 64.306 40.1V43H63.166V37.49H64.306V38.29ZM68.1439 38.29C68.3106 38.01 68.5306 37.7933 68.8039 37.64C69.0839 37.48 69.4139 37.4 69.7939 37.4V38.58H69.5039C69.0572 38.58 68.7172 38.6933 68.4839 38.92C68.2572 39.1467 68.1439 39.54 68.1439 40.1V43H67.0039V37.49H68.1439V38.29ZM75.8918 40.11C75.8918 40.3167 75.8785 40.5033 75.8518 40.67H71.6418C71.6751 41.11 71.8385 41.4633 72.1318 41.73C72.4251 41.9967 72.7851 42.13 73.2118 42.13C73.8251 42.13 74.2585 41.8733 74.5118 41.36H75.7418C75.5751 41.8667 75.2718 42.2833 74.8318 42.61C74.3985 42.93 73.8585 43.09 73.2118 43.09C72.6851 43.09 72.2118 42.9733 71.7918 42.74C71.3785 42.5 71.0518 42.1667 70.8118 41.74C70.5785 41.3067 70.4618 40.8067 70.4618 40.24C70.4618 39.6733 70.5751 39.1767 70.8018 38.75C71.0351 38.3167 71.3585 37.9833 71.7718 37.75C72.1918 37.5167 72.6718 37.4 73.2118 37.4C73.7318 37.4 74.1951 37.5133 74.6018 37.74C75.0085 37.9667 75.3251 38.2867 75.5518 38.7C75.7785 39.1067 75.8918 39.5767 75.8918 40.11ZM74.7018 39.75C74.6951 39.33 74.5451 38.9933 74.2518 38.74C73.9585 38.4867 73.5951 38.36 73.1618 38.36C72.7685 38.36 72.4318 38.4867 72.1518 38.74C71.8718 38.9867 71.7051 39.3233 71.6518 39.75H74.7018ZM78.3437 38.42V41.47C78.3437 41.6767 78.3903 41.8267 78.4837 41.92C78.5837 42.0067 78.7503 42.05 78.9837 42.05H79.6837V43H78.7837C78.2703 43 77.877 42.88 77.6037 42.64C77.3303 42.4 77.1937 42.01 77.1937 41.47V38.42H76.5437V37.49H77.1937V36.12H78.3437V37.49H79.6837V38.42H78.3437ZM83.1244 43.09C82.6044 43.09 82.1344 42.9733 81.7144 42.74C81.2944 42.5 80.9644 42.1667 80.7244 41.74C80.4844 41.3067 80.3644 40.8067 80.3644 40.24C80.3644 39.68 80.4877 39.1833 80.7344 38.75C80.981 38.3167 81.3177 37.9833 81.7444 37.75C82.171 37.5167 82.6477 37.4 83.1744 37.4C83.701 37.4 84.1777 37.5167 84.6044 37.75C85.031 37.9833 85.3677 38.3167 85.6144 38.75C85.861 39.1833 85.9844 39.68 85.9844 40.24C85.9844 40.8 85.8577 41.2967 85.6044 41.73C85.351 42.1633 85.0044 42.5 84.5644 42.74C84.131 42.9733 83.651 43.09 83.1244 43.09ZM83.1244 42.1C83.4177 42.1 83.691 42.03 83.9444 41.89C84.2044 41.75 84.4144 41.54 84.5744 41.26C84.7344 40.98 84.8144 40.64 84.8144 40.24C84.8144 39.84 84.7377 39.5033 84.5844 39.23C84.431 38.95 84.2277 38.74 83.9744 38.6C83.721 38.46 83.4477 38.39 83.1544 38.39C82.861 38.39 82.5877 38.46 82.3344 38.6C82.0877 38.74 81.891 38.95 81.7444 39.23C81.5977 39.5033 81.5244 39.84 81.5244 40.24C81.5244 40.8333 81.6744 41.2933 81.9744 41.62C82.281 41.94 82.6644 42.1 83.1244 42.1ZM88.2513 38.29C88.418 38.01 88.638 37.7933 88.9113 37.64C89.1913 37.48 89.5213 37.4 89.9013 37.4V38.58H89.6113C89.1647 38.58 88.8247 38.6933 88.5913 38.92C88.3647 39.1467 88.2513 39.54 88.2513 40.1V43H87.1113V37.49H88.2513V38.29ZM90.5692 40.22C90.5692 39.6667 90.6826 39.1767 90.9092 38.75C91.1426 38.3233 91.4559 37.9933 91.8492 37.76C92.2492 37.52 92.6892 37.4 93.1692 37.4C93.6026 37.4 93.9792 37.4867 94.2992 37.66C94.6259 37.8267 94.8859 38.0367 95.0792 38.29V37.49H96.2292V43H95.0792V42.18C94.8859 42.44 94.6226 42.6567 94.2892 42.83C93.9559 43.0033 93.5759 43.09 93.1492 43.09C92.6759 43.09 92.2426 42.97 91.8492 42.73C91.4559 42.4833 91.1426 42.1433 90.9092 41.71C90.6826 41.27 90.5692 40.7733 90.5692 40.22ZM95.0792 40.24C95.0792 39.86 94.9992 39.53 94.8392 39.25C94.6859 38.97 94.4826 38.7567 94.2292 38.61C93.9759 38.4633 93.7026 38.39 93.4092 38.39C93.1159 38.39 92.8426 38.4633 92.5892 38.61C92.3359 38.75 92.1292 38.96 91.9692 39.24C91.8159 39.5133 91.7392 39.84 91.7392 40.22C91.7392 40.6 91.8159 40.9333 91.9692 41.22C92.1292 41.5067 92.3359 41.7267 92.5892 41.88C92.8492 42.0267 93.1226 42.1 93.4092 42.1C93.7026 42.1 93.9759 42.0267 94.2292 41.88C94.4826 41.7333 94.6859 41.52 94.8392 41.24C94.9992 40.9533 95.0792 40.62 95.0792 40.24ZM101.464 36.05V43H100.324V36.05H101.464ZM109.631 37.4C110.064 37.4 110.451 37.49 110.791 37.67C111.138 37.85 111.408 38.1167 111.601 38.47C111.801 38.8233 111.901 39.25 111.901 39.75V43H110.771V39.92C110.771 39.4267 110.648 39.05 110.401 38.79C110.154 38.5233 109.818 38.39 109.391 38.39C108.964 38.39 108.624 38.5233 108.371 38.79C108.124 39.05 108.001 39.4267 108.001 39.92V43H106.871V39.92C106.871 39.4267 106.748 39.05 106.501 38.79C106.254 38.5233 105.918 38.39 105.491 38.39C105.064 38.39 104.724 38.5233 104.471 38.79C104.224 39.05 104.101 39.4267 104.101 39.92V43H102.961V37.49H104.101V38.12C104.288 37.8933 104.524 37.7167 104.811 37.59C105.098 37.4633 105.404 37.4 105.731 37.4C106.171 37.4 106.564 37.4933 106.911 37.68C107.258 37.8667 107.524 38.1367 107.711 38.49C107.878 38.1567 108.138 37.8933 108.491 37.7C108.844 37.5 109.224 37.4 109.631 37.4ZM115.742 43.09C115.222 43.09 114.752 42.9733 114.332 42.74C113.912 42.5 113.582 42.1667 113.342 41.74C113.102 41.3067 112.982 40.8067 112.982 40.24C112.982 39.68 113.105 39.1833 113.352 38.75C113.598 38.3167 113.935 37.9833 114.362 37.75C114.788 37.5167 115.265 37.4 115.792 37.4C116.318 37.4 116.795 37.5167 117.222 37.75C117.648 37.9833 117.985 38.3167 118.232 38.75C118.478 39.1833 118.602 39.68 118.602 40.24C118.602 40.8 118.475 41.2967 118.222 41.73C117.968 42.1633 117.622 42.5 117.182 42.74C116.748 42.9733 116.268 43.09 115.742 43.09ZM115.742 42.1C116.035 42.1 116.308 42.03 116.562 41.89C116.822 41.75 117.032 41.54 117.192 41.26C117.352 40.98 117.432 40.64 117.432 40.24C117.432 39.84 117.355 39.5033 117.202 39.23C117.048 38.95 116.845 38.74 116.592 38.6C116.338 38.46 116.065 38.39 115.772 38.39C115.478 38.39 115.205 38.46 114.952 38.6C114.705 38.74 114.508 38.95 114.362 39.23C114.215 39.5033 114.142 39.84 114.142 40.24C114.142 40.8333 114.292 41.2933 114.592 41.62C114.898 41.94 115.282 42.1 115.742 42.1ZM120.869 38.31C121.062 38.0433 121.325 37.8267 121.659 37.66C121.999 37.4867 122.375 37.4 122.789 37.4C123.275 37.4 123.715 37.5167 124.109 37.75C124.502 37.9833 124.812 38.3167 125.039 38.75C125.265 39.1767 125.379 39.6667 125.379 40.22C125.379 40.7733 125.265 41.27 125.039 41.71C124.812 42.1433 124.499 42.4833 124.099 42.73C123.705 42.97 123.269 43.09 122.789 43.09C122.362 43.09 121.982 43.0067 121.649 42.84C121.322 42.6733 121.062 42.46 120.869 42.2V43H119.729V35.6H120.869V38.31ZM124.219 40.22C124.219 39.84 124.139 39.5133 123.979 39.24C123.825 38.96 123.619 38.75 123.359 38.61C123.105 38.4633 122.832 38.39 122.539 38.39C122.252 38.39 121.979 38.4633 121.719 38.61C121.465 38.7567 121.259 38.97 121.099 39.25C120.945 39.53 120.869 39.86 120.869 40.24C120.869 40.62 120.945 40.9533 121.099 41.24C121.259 41.52 121.465 41.7333 121.719 41.88C121.979 42.0267 122.252 42.1 122.539 42.1C122.832 42.1 123.105 42.0267 123.359 41.88C123.619 41.7267 123.825 41.5067 123.979 41.22C124.139 40.9333 124.219 40.6 124.219 40.22ZM127.086 36.76C126.879 36.76 126.706 36.69 126.566 36.55C126.426 36.41 126.356 36.2367 126.356 36.03C126.356 35.8233 126.426 35.65 126.566 35.51C126.706 35.37 126.879 35.3 127.086 35.3C127.286 35.3 127.456 35.37 127.596 35.51C127.736 35.65 127.806 35.8233 127.806 36.03C127.806 36.2367 127.736 36.41 127.596 36.55C127.456 36.69 127.286 36.76 127.086 36.76ZM127.646 37.49V43H126.506V37.49H127.646ZM130.283 35.6V43H129.143V35.6H130.283ZM132.359 36.76C132.153 36.76 131.979 36.69 131.839 36.55C131.699 36.41 131.629 36.2367 131.629 36.03C131.629 35.8233 131.699 35.65 131.839 35.51C131.979 35.37 132.153 35.3 132.359 35.3C132.559 35.3 132.729 35.37 132.869 35.51C133.009 35.65 133.079 35.8233 133.079 36.03C133.079 36.2367 133.009 36.41 132.869 36.55C132.729 36.69 132.559 36.76 132.359 36.76ZM132.919 37.49V43H131.779V37.49H132.919ZM134.036 40.22C134.036 39.6667 134.149 39.1767 134.376 38.75C134.609 38.3233 134.923 37.9933 135.316 37.76C135.716 37.52 136.156 37.4 136.636 37.4C137.069 37.4 137.446 37.4867 137.766 37.66C138.093 37.8267 138.353 38.0367 138.546 38.29V37.49H139.696V43H138.546V42.18C138.353 42.44 138.089 42.6567 137.756 42.83C137.423 43.0033 137.043 43.09 136.616 43.09C136.143 43.09 135.709 42.97 135.316 42.73C134.923 42.4833 134.609 42.1433 134.376 41.71C134.149 41.27 134.036 40.7733 134.036 40.22ZM138.546 40.24C138.546 39.86 138.466 39.53 138.306 39.25C138.153 38.97 137.949 38.7567 137.696 38.61C137.443 38.4633 137.169 38.39 136.876 38.39C136.583 38.39 136.309 38.4633 136.056 38.61C135.803 38.75 135.596 38.96 135.436 39.24C135.283 39.5133 135.206 39.84 135.206 40.22C135.206 40.6 135.283 40.9333 135.436 41.22C135.596 41.5067 135.803 41.7267 136.056 41.88C136.316 42.0267 136.589 42.1 136.876 42.1C137.169 42.1 137.443 42.0267 137.696 41.88C137.949 41.7333 138.153 41.52 138.306 41.24C138.466 40.9533 138.546 40.62 138.546 40.24ZM138.086 36.01L135.876 37.1V36.26L138.086 35.04V36.01ZM142.333 38.29C142.5 38.01 142.72 37.7933 142.993 37.64C143.273 37.48 143.603 37.4 143.983 37.4V38.58H143.693C143.247 38.58 142.907 38.6933 142.673 38.92C142.447 39.1467 142.333 39.54 142.333 40.1V43H141.193V37.49H142.333V38.29ZM145.611 36.76C145.405 36.76 145.231 36.69 145.091 36.55C144.951 36.41 144.881 36.2367 144.881 36.03C144.881 35.8233 144.951 35.65 145.091 35.51C145.231 35.37 145.405 35.3 145.611 35.3C145.811 35.3 145.981 35.37 146.121 35.51C146.261 35.65 146.331 35.8233 146.331 36.03C146.331 36.2367 146.261 36.41 146.121 36.55C145.981 36.69 145.811 36.76 145.611 36.76ZM146.171 37.49V43H145.031V37.49H146.171ZM147.288 40.22C147.288 39.6667 147.401 39.1767 147.628 38.75C147.861 38.3233 148.175 37.9933 148.568 37.76C148.968 37.52 149.408 37.4 149.888 37.4C150.321 37.4 150.698 37.4867 151.018 37.66C151.345 37.8267 151.605 38.0367 151.798 38.29V37.49H152.948V43H151.798V42.18C151.605 42.44 151.341 42.6567 151.008 42.83C150.675 43.0033 150.295 43.09 149.868 43.09C149.395 43.09 148.961 42.97 148.568 42.73C148.175 42.4833 147.861 42.1433 147.628 41.71C147.401 41.27 147.288 40.7733 147.288 40.22ZM151.798 40.24C151.798 39.86 151.718 39.53 151.558 39.25C151.405 38.97 151.201 38.7567 150.948 38.61C150.695 38.4633 150.421 38.39 150.128 38.39C149.835 38.39 149.561 38.4633 149.308 38.61C149.055 38.75 148.848 38.96 148.688 39.24C148.535 39.5133 148.458 39.84 148.458 40.22C148.458 40.6 148.535 40.9333 148.688 41.22C148.848 41.5067 149.055 41.7267 149.308 41.88C149.568 42.0267 149.841 42.1 150.128 42.1C150.421 42.1 150.695 42.0267 150.948 41.88C151.201 41.7333 151.405 41.52 151.558 41.24C151.718 40.9533 151.798 40.62 151.798 40.24Z" fill="#031F3D"/>
<path d="M3.34082 40.6333H36.7529" stroke="#031F3D" stroke-width="2.50591" stroke-miterlimit="10" stroke-linecap="round" stroke-linejoin="round"/>
<path d="M4.92773 40.6331L5.01126 20.5357C5.01126 19.5167 5.49574 18.5477 6.29763 17.9129L17.9919 8.8081C19.1947 7.87256 20.882 7.87256 22.1015 8.8081L33.7958 17.8962C34.6144 18.531 35.0821 19.5 35.0821 20.5357V40.6331" stroke="#031F3D" stroke-width="2.50591" stroke-miterlimit="10" stroke-linejoin="round"/>
<path d="M16.7061 31.027V33.5329M17.5415 16.4092H22.5533M25.8945 22.2563H14.2002C12.8136 22.2563 11.6943 23.3756 11.6943 24.7622V40.6329H28.4004V24.7622C28.4004 23.3756 27.2811 22.2563 25.8945 22.2563Z" stroke="#031F3D" stroke-width="2.50591" stroke-miterlimit="10" stroke-linecap="round" stroke-linejoin="round"/>
</svg>