
<svg width="179" height="89" viewBox="0 0 179 89" fill="none" xmlns="http://www.w3.org/2000/svg">
<path d="M11.4722 74.7727C11.4722 73.5487 11.7482 72.4507 12.3002 71.4787C12.8522 70.4947 13.6022 69.7267 14.5502 69.1747C15.5102 68.6227 16.5722 68.3467 17.7362 68.3467C19.1042 68.3467 20.2982 68.6767 21.3182 69.3367C22.3382 69.9967 23.0822 70.9327 23.5502 72.1447H21.5882C21.2402 71.3887 20.7362 70.8067 20.0762 70.3987C19.4282 69.9907 18.6482 69.7867 17.7362 69.7867C16.8602 69.7867 16.0742 69.9907 15.3782 70.3987C14.6822 70.8067 14.1362 71.3887 13.7402 72.1447C13.3442 72.8887 13.1462 73.7647 13.1462 74.7727C13.1462 75.7687 13.3442 76.6447 13.7402 77.4007C14.1362 78.1447 14.6822 78.7207 15.3782 79.1287C16.0742 79.5367 16.8602 79.7407 17.7362 79.7407C18.6482 79.7407 19.4282 79.5427 20.0762 79.1467C20.7362 78.7387 21.2402 78.1567 21.5882 77.4007H23.5502C23.0822 78.6007 22.3382 79.5307 21.3182 80.1907C20.2982 80.8387 19.1042 81.1627 17.7362 81.1627C16.5722 81.1627 15.5102 80.8927 14.5502 80.3527C13.6022 79.8007 12.8522 79.0387 12.3002 78.0667C11.7482 77.0947 11.4722 75.9967 11.4722 74.7727ZM32.5945 81.0547L29.6065 75.9247H27.6265V81.0547H25.9885V68.5087H30.0385C30.9865 68.5087 31.7845 68.6707 32.4325 68.9947C33.0925 69.3187 33.5845 69.7567 33.9085 70.3087C34.2325 70.8607 34.3945 71.4907 34.3945 72.1987C34.3945 73.0627 34.1425 73.8247 33.6385 74.4847C33.1465 75.1447 32.4025 75.5827 31.4065 75.7987L34.5565 81.0547H32.5945ZM27.6265 74.6107H30.0385C30.9265 74.6107 31.5925 74.3947 32.0365 73.9627C32.4805 73.5187 32.7025 72.9307 32.7025 72.1987C32.7025 71.4547 32.4805 70.8787 32.0365 70.4707C31.6045 70.0627 30.9385 69.8587 30.0385 69.8587H27.6265V74.6107ZM38.5777 69.8407V74.0347H43.1497V75.3847H38.5777V79.7047H43.6897V81.0547H36.9397V68.4907H43.6897V69.8407H38.5777ZM45.5562 74.7727C45.5562 73.5487 45.8322 72.4507 46.3842 71.4787C46.9362 70.4947 47.6862 69.7267 48.6342 69.1747C49.5942 68.6227 50.6562 68.3467 51.8202 68.3467C53.1882 68.3467 54.3822 68.6767 55.4022 69.3367C56.4222 69.9967 57.1662 70.9327 57.6342 72.1447H55.6722C55.3242 71.3887 54.8202 70.8067 54.1602 70.3987C53.5122 69.9907 52.7322 69.7867 51.8202 69.7867C50.9442 69.7867 50.1582 69.9907 49.4622 70.3987C48.7662 70.8067 48.2202 71.3887 47.8242 72.1447C47.4282 72.8887 47.2302 73.7647 47.2302 74.7727C47.2302 75.7687 47.4282 76.6447 47.8242 77.4007C48.2202 78.1447 48.7662 78.7207 49.4622 79.1287C50.1582 79.5367 50.9442 79.7407 51.8202 79.7407C52.7322 79.7407 53.5122 79.5427 54.1602 79.1467C54.8202 78.7387 55.3242 78.1567 55.6722 77.4007H57.6342C57.1662 78.6007 56.4222 79.5307 55.4022 80.1907C54.3822 80.8387 53.1882 81.1627 51.8202 81.1627C50.6562 81.1627 49.5942 80.8927 48.6342 80.3527C47.6862 79.8007 46.9362 79.0387 46.3842 78.0667C45.8322 77.0947 45.5562 75.9967 45.5562 74.7727ZM61.7105 68.5087V81.0547H60.0725V68.5087H61.7105ZM71.3422 73.7647V75.1507H64.1602V73.7647H71.3422ZM78.3943 81.1807C77.5663 81.1807 76.8223 81.0367 76.1623 80.7487C75.5143 80.4487 75.0043 80.0407 74.6323 79.5247C74.2603 78.9967 74.0683 78.3907 74.0563 77.7067H75.8023C75.8623 78.2947 76.1023 78.7927 76.5223 79.2007C76.9543 79.5967 77.5783 79.7947 78.3943 79.7947C79.1743 79.7947 79.7863 79.6027 80.2303 79.2187C80.6863 78.8227 80.9143 78.3187 80.9143 77.7067C80.9143 77.2267 80.7823 76.8367 80.5183 76.5367C80.2543 76.2367 79.9243 76.0087 79.5283 75.8527C79.1323 75.6967 78.5983 75.5287 77.9263 75.3487C77.0983 75.1327 76.4323 74.9167 75.9283 74.7007C75.4363 74.4847 75.0103 74.1487 74.6503 73.6927C74.3023 73.2247 74.1283 72.6007 74.1283 71.8207C74.1283 71.1367 74.3023 70.5307 74.6503 70.0027C74.9983 69.4747 75.4843 69.0667 76.1083 68.7787C76.7443 68.4907 77.4703 68.3467 78.2863 68.3467C79.4623 68.3467 80.4223 68.6407 81.1663 69.2287C81.9223 69.8167 82.3483 70.5967 82.4443 71.5687H80.6443C80.5843 71.0887 80.3323 70.6687 79.8883 70.3087C79.4443 69.9367 78.8563 69.7507 78.1243 69.7507C77.4403 69.7507 76.8823 69.9307 76.4503 70.2907C76.0183 70.6387 75.8023 71.1307 75.8023 71.7667C75.8023 72.2227 75.9283 72.5947 76.1803 72.8827C76.4443 73.1707 76.7623 73.3927 77.1343 73.5487C77.5183 73.6927 78.0523 73.8607 78.7363 74.0527C79.5643 74.2807 80.2303 74.5087 80.7343 74.7367C81.2383 74.9527 81.6703 75.2947 82.0303 75.7627C82.3903 76.2187 82.5703 76.8427 82.5703 77.6347C82.5703 78.2467 82.4083 78.8227 82.0843 79.3627C81.7603 79.9027 81.2803 80.3407 80.6443 80.6767C80.0083 81.0127 79.2583 81.1807 78.3943 81.1807ZM93.3687 72.1807C93.3687 73.2247 93.0087 74.0947 92.2887 74.7907C91.5807 75.4747 90.4947 75.8167 89.0307 75.8167H86.6187V81.0547H84.9807V68.5087H89.0307C90.4467 68.5087 91.5207 68.8507 92.2527 69.5347C92.9967 70.2187 93.3687 71.1007 93.3687 72.1807ZM89.0307 74.4667C89.9427 74.4667 90.6147 74.2687 91.0467 73.8727C91.4787 73.4767 91.6947 72.9127 91.6947 72.1807C91.6947 70.6327 90.8067 69.8587 89.0307 69.8587H86.6187V74.4667H89.0307ZM106.521 68.5087V77.7787C106.521 78.8107 106.203 79.6387 105.567 80.2627C104.931 80.8747 104.091 81.1807 103.047 81.1807C101.991 81.1807 101.145 80.8687 100.509 80.2447C99.8734 79.6087 99.5554 78.7447 99.5554 77.6527H101.193C101.205 78.2647 101.361 78.7627 101.661 79.1467C101.973 79.5307 102.435 79.7227 103.047 79.7227C103.659 79.7227 104.115 79.5427 104.415 79.1827C104.715 78.8107 104.865 78.3427 104.865 77.7787V68.5087H106.521ZM109.28 79.7407C110.804 78.5167 111.998 77.5147 112.862 76.7347C113.726 75.9427 114.452 75.1207 115.04 74.2687C115.64 73.4047 115.94 72.5587 115.94 71.7307C115.94 70.9507 115.748 70.3387 115.364 69.8947C114.992 69.4387 114.386 69.2107 113.546 69.2107C112.73 69.2107 112.094 69.4687 111.638 69.9847C111.194 70.4887 110.954 71.1667 110.918 72.0187H109.334C109.382 70.6747 109.79 69.6367 110.558 68.9047C111.326 68.1727 112.316 67.8067 113.528 67.8067C114.764 67.8067 115.742 68.1487 116.462 68.8327C117.194 69.5167 117.56 70.4587 117.56 71.6587C117.56 72.6547 117.26 73.6267 116.66 74.5747C116.072 75.5107 115.4 76.3387 114.644 77.0587C113.888 77.7667 112.922 78.5947 111.746 79.5427H117.938V80.9107H109.28V79.7407ZM119.796 71.3167C119.88 70.2127 120.306 69.3487 121.074 68.7247C121.842 68.1007 122.838 67.7887 124.062 67.7887C124.878 67.7887 125.58 67.9387 126.168 68.2387C126.768 68.5267 127.218 68.9227 127.518 69.4267C127.83 69.9307 127.986 70.5007 127.986 71.1367C127.986 71.8807 127.77 72.5227 127.338 73.0627C126.918 73.6027 126.366 73.9507 125.682 74.1067V74.1967C126.462 74.3887 127.08 74.7667 127.536 75.3307C127.992 75.8947 128.22 76.6327 128.22 77.5447C128.22 78.2287 128.064 78.8467 127.752 79.3987C127.44 79.9387 126.972 80.3647 126.348 80.6767C125.724 80.9887 124.974 81.1447 124.098 81.1447C122.826 81.1447 121.782 80.8147 120.966 80.1547C120.15 79.4827 119.694 78.5347 119.598 77.3107H121.182C121.266 78.0307 121.56 78.6187 122.064 79.0747C122.568 79.5307 123.24 79.7587 124.08 79.7587C124.92 79.7587 125.556 79.5427 125.988 79.1107C126.432 78.6667 126.654 78.0967 126.654 77.4007C126.654 76.5007 126.354 75.8527 125.754 75.4567C125.154 75.0607 124.248 74.8627 123.036 74.8627H122.622V73.4947H123.054C124.158 73.4827 124.992 73.3027 125.556 72.9547C126.12 72.5947 126.402 72.0427 126.402 71.2987C126.402 70.6627 126.192 70.1527 125.772 69.7687C125.364 69.3847 124.776 69.1927 124.008 69.1927C123.264 69.1927 122.664 69.3847 122.208 69.7687C121.752 70.1527 121.482 70.6687 121.398 71.3167H119.796ZM131.223 81.1627C130.911 81.1627 130.647 81.0547 130.431 80.8387C130.215 80.6227 130.107 80.3587 130.107 80.0467C130.107 79.7347 130.215 79.4707 130.431 79.2547C130.647 79.0387 130.911 78.9307 131.223 78.9307C131.523 78.9307 131.775 79.0387 131.979 79.2547C132.195 79.4707 132.303 79.7347 132.303 80.0467C132.303 80.3587 132.195 80.6227 131.979 80.8387C131.775 81.0547 131.523 81.1627 131.223 81.1627ZM136.587 74.2867C135.915 74.0227 135.399 73.6387 135.039 73.1347C134.679 72.6307 134.499 72.0187 134.499 71.2987C134.499 70.6507 134.661 70.0687 134.985 69.5527C135.309 69.0247 135.789 68.6107 136.425 68.3107C137.073 67.9987 137.853 67.8427 138.765 67.8427C139.677 67.8427 140.451 67.9987 141.087 68.3107C141.735 68.6107 142.221 69.0247 142.545 69.5527C142.881 70.0687 143.049 70.6507 143.049 71.2987C143.049 71.9947 142.863 72.6067 142.491 73.1347C142.119 73.6507 141.609 74.0347 140.961 74.2867C141.705 74.5147 142.293 74.9167 142.725 75.4927C143.169 76.0567 143.391 76.7407 143.391 77.5447C143.391 78.3247 143.199 79.0087 142.815 79.5967C142.431 80.1727 141.885 80.6227 141.177 80.9467C140.481 81.2587 139.677 81.4147 138.765 81.4147C137.853 81.4147 137.049 81.2587 136.353 80.9467C135.669 80.6227 135.135 80.1727 134.751 79.5967C134.367 79.0087 134.175 78.3247 134.175 77.5447C134.175 76.7407 134.391 76.0507 134.823 75.4747C135.255 74.8987 135.843 74.5027 136.587 74.2867ZM141.465 71.4967C141.465 70.7647 141.225 70.2007 140.745 69.8047C140.265 69.4087 139.605 69.2107 138.765 69.2107C137.937 69.2107 137.283 69.4087 136.803 69.8047C136.323 70.2007 136.083 70.7707 136.083 71.5147C136.083 72.1867 136.329 72.7267 136.821 73.1347C137.325 73.5427 137.973 73.7467 138.765 73.7467C139.569 73.7467 140.217 73.5427 140.709 73.1347C141.213 72.7147 141.465 72.1687 141.465 71.4967ZM138.765 75.0067C137.877 75.0067 137.151 75.2167 136.587 75.6367C136.023 76.0447 135.741 76.6627 135.741 77.4907C135.741 78.2587 136.011 78.8767 136.551 79.3447C137.103 79.8127 137.841 80.0467 138.765 80.0467C139.689 80.0467 140.421 79.8127 140.961 79.3447C141.501 78.8767 141.771 78.2587 141.771 77.4907C141.771 76.6867 141.495 76.0747 140.943 75.6547C140.391 75.2227 139.665 75.0067 138.765 75.0067ZM152.82 71.1367C152.556 69.8047 151.734 69.1387 150.354 69.1387C149.286 69.1387 148.488 69.5527 147.96 70.3807C147.432 71.1967 147.174 72.5467 147.186 74.4307C147.462 73.8067 147.918 73.3207 148.554 72.9727C149.202 72.6127 149.922 72.4327 150.714 72.4327C151.95 72.4327 152.934 72.8167 153.666 73.5847C154.41 74.3527 154.782 75.4147 154.782 76.7707C154.782 77.5867 154.62 78.3187 154.296 78.9667C153.984 79.6147 153.504 80.1307 152.856 80.5147C152.22 80.8987 151.446 81.0907 150.534 81.0907C149.298 81.0907 148.332 80.8147 147.636 80.2627C146.94 79.7107 146.454 78.9487 146.178 77.9767C145.902 77.0047 145.764 75.8047 145.764 74.3767C145.764 69.9727 147.3 67.7707 150.372 67.7707C151.548 67.7707 152.472 68.0887 153.144 68.7247C153.816 69.3607 154.212 70.1647 154.332 71.1367H152.82ZM150.372 73.8187C149.856 73.8187 149.37 73.9267 148.914 74.1427C148.458 74.3467 148.086 74.6647 147.798 75.0967C147.522 75.5167 147.384 76.0327 147.384 76.6447C147.384 77.5567 147.648 78.3007 148.176 78.8767C148.704 79.4407 149.46 79.7227 150.444 79.7227C151.284 79.7227 151.95 79.4647 152.442 78.9487C152.946 78.4207 153.198 77.7127 153.198 76.8247C153.198 75.8887 152.958 75.1567 152.478 74.6287C151.998 74.0887 151.296 73.8187 150.372 73.8187ZM156.596 78.1567V76.9147L162.914 68.1667H164.876V76.7347H166.676V78.1567H164.876V81.0547H163.256V78.1567H156.596ZM163.328 69.8767L158.486 76.7347H163.328V69.8767Z" fill="#FDFDFD"/>
<path d="M60.8235 11.0684V31.0547H55.955V11.0684H60.8235ZM84.6226 14.9973C86.5966 14.9973 88.1624 15.5952 89.3202 16.791C90.497 17.9867 91.0854 19.6475 91.0854 21.7733V31.0547H86.2454V22.4281C86.2454 21.4032 85.9702 20.6155 85.4198 20.0651C84.8883 19.4957 84.1481 19.211 83.1991 19.211C82.2501 19.211 81.5003 19.4957 80.9499 20.0651C80.4185 20.6155 80.1527 21.4032 80.1527 22.4281V31.0547H75.3128V22.4281C75.3128 21.4032 75.0375 20.6155 74.4871 20.0651C73.9557 19.4957 73.2154 19.211 72.2664 19.211C71.3174 19.211 70.5677 19.4957 70.0172 20.0651C69.4858 20.6155 69.2201 21.4032 69.2201 22.4281V31.0547H64.3516V15.1681H69.2201V17.1611C69.7136 16.4968 70.3589 15.9748 71.1561 15.5952C71.9532 15.1966 72.8548 14.9973 73.8608 14.9973C75.0565 14.9973 76.1194 15.2536 77.0495 15.766C77.9985 16.2785 78.7387 17.0092 79.2702 17.9583C79.8206 17.0852 80.5703 16.3734 81.5193 15.823C82.4683 15.2725 83.5028 14.9973 84.6226 14.9973ZM101.722 31.2825C100.165 31.2825 98.7609 30.9503 97.5082 30.286C96.2745 29.6217 95.297 28.6727 94.5757 27.4389C93.8735 26.2052 93.5223 24.7627 93.5223 23.1114C93.5223 21.4791 93.8829 20.0461 94.6042 18.8124C95.3254 17.5597 96.3124 16.6012 97.5651 15.9368C98.8178 15.2725 100.222 14.9404 101.779 14.9404C103.335 14.9404 104.74 15.2725 105.992 15.9368C107.245 16.6012 108.232 17.5597 108.953 18.8124C109.675 20.0461 110.035 21.4791 110.035 23.1114C110.035 24.7437 109.665 26.1862 108.925 27.4389C108.204 28.6727 107.207 29.6217 105.935 30.286C104.683 30.9503 103.278 31.2825 101.722 31.2825ZM101.722 27.0688C102.652 27.0688 103.44 26.7272 104.085 26.0439C104.749 25.3606 105.081 24.3831 105.081 23.1114C105.081 21.8397 104.759 20.8622 104.113 20.179C103.487 19.4957 102.709 19.154 101.779 19.154C100.83 19.154 100.042 19.4957 99.4157 20.179C98.7894 20.8433 98.4762 21.8208 98.4762 23.1114C98.4762 24.3831 98.7799 25.3606 99.3872 26.0439C100.014 26.7272 100.792 27.0688 101.722 27.0688ZM117.486 17.4173C117.942 16.6771 118.597 16.0792 119.451 15.6237C120.305 15.1681 121.283 14.9404 122.383 14.9404C123.693 14.9404 124.879 15.2725 125.942 15.9368C127.005 16.6012 127.84 17.5502 128.448 18.7839C129.074 20.0176 129.387 21.4506 129.387 23.0829C129.387 24.7153 129.074 26.1578 128.448 27.4105C127.84 28.6442 127.005 29.6027 125.942 30.286C124.879 30.9503 123.693 31.2825 122.383 31.2825C121.264 31.2825 120.286 31.0642 119.451 30.6276C118.616 30.1721 117.961 29.5742 117.486 28.834V31.0547H112.618V9.98651H117.486V17.4173ZM124.433 23.0829C124.433 21.8682 124.092 20.9192 123.408 20.2359C122.744 19.5336 121.918 19.1825 120.931 19.1825C119.963 19.1825 119.138 19.5336 118.454 20.2359C117.79 20.9382 117.458 21.8967 117.458 23.1114C117.458 24.3262 117.79 25.2847 118.454 25.9869C119.138 26.6892 119.963 27.0403 120.931 27.0403C121.899 27.0403 122.725 26.6892 123.408 25.9869C124.092 25.2657 124.433 24.2977 124.433 23.0829ZM134.39 13.5169C133.536 13.5169 132.833 13.2701 132.283 12.7766C131.751 12.2642 131.486 11.6378 131.486 10.8976C131.486 10.1384 131.751 9.512 132.283 9.01852C132.833 8.50605 133.536 8.24981 134.39 8.24981C135.225 8.24981 135.908 8.50605 136.44 9.01852C136.99 9.512 137.265 10.1384 137.265 10.8976C137.265 11.6378 136.99 12.2642 136.44 12.7766C135.908 13.2701 135.225 13.5169 134.39 13.5169ZM136.81 15.1681V31.0547H131.941V15.1681H136.81ZM145.206 9.98651V31.0547H140.338V9.98651H145.206ZM147.766 23.0829C147.766 21.4506 148.07 20.0176 148.677 18.7839C149.304 17.5502 150.148 16.6012 151.211 15.9368C152.274 15.2725 153.461 14.9404 154.77 14.9404C155.89 14.9404 156.867 15.1681 157.703 15.6237C158.557 16.0792 159.212 16.6771 159.667 17.4173V15.1681H164.536V31.0547H159.667V28.8055C159.193 29.5458 158.528 30.1436 157.674 30.5992C156.839 31.0547 155.862 31.2825 154.742 31.2825C153.451 31.2825 152.274 30.9503 151.211 30.286C150.148 29.6027 149.304 28.6442 148.677 27.4105C148.07 26.1578 147.766 24.7153 147.766 23.0829ZM159.667 23.1114C159.667 21.8967 159.325 20.9382 158.642 20.2359C157.978 19.5336 157.162 19.1825 156.194 19.1825C155.226 19.1825 154.4 19.5336 153.717 20.2359C153.052 20.9192 152.72 21.8682 152.72 23.0829C152.72 24.2977 153.052 25.2657 153.717 25.9869C154.4 26.6892 155.226 27.0403 156.194 27.0403C157.162 27.0403 157.978 26.6892 158.642 25.9869C159.325 25.2847 159.667 24.3262 159.667 23.1114ZM172.926 17.8159C173.496 16.9428 174.207 16.2595 175.061 15.766C175.916 15.2536 176.865 14.9973 177.908 14.9973V20.1505H176.57C175.356 20.1505 174.445 20.4162 173.837 20.9477C173.23 21.4601 172.926 22.3712 172.926 23.6808V31.0547H168.058V15.1681H172.926V17.8159ZM56.741 44.0802C56.741 43.3058 56.9194 42.6111 57.2762 41.9962C57.6406 41.3812 58.1303 40.9029 58.7453 40.5613C59.3678 40.212 60.0473 40.0374 60.7838 40.0374C61.6265 40.0374 62.3743 40.2462 63.0272 40.6637C63.6878 41.0737 64.1661 41.6583 64.4622 42.4175H62.902C62.697 42 62.4123 41.6887 62.0479 41.4837C61.6834 41.2787 61.2621 41.1762 60.7838 41.1762C60.2599 41.1762 59.793 41.2939 59.383 41.5292C58.973 41.7646 58.6504 42.1025 58.415 42.5428C58.1873 42.9831 58.0734 43.4956 58.0734 44.0802C58.0734 44.6648 58.1873 45.1773 58.415 45.6176C58.6504 46.058 58.973 46.3996 59.383 46.6426C59.793 46.8779 60.2599 46.9956 60.7838 46.9956C61.2621 46.9956 61.6834 46.8931 62.0479 46.6881C62.4123 46.4831 62.697 46.1718 62.902 45.7543H64.4622C64.1661 46.5135 63.6878 47.0981 63.0272 47.5081C62.3743 47.918 61.6265 48.123 60.7838 48.123C60.0397 48.123 59.3602 47.9522 58.7453 47.6105C58.1303 47.2613 57.6406 46.7792 57.2762 46.1642C56.9194 45.5493 56.741 44.8546 56.741 44.0802ZM68.7035 48.1572C68.1114 48.1572 67.5761 48.0243 67.0978 47.7586C66.6195 47.4853 66.2437 47.1057 65.9704 46.6198C65.6971 46.1263 65.5604 45.5569 65.5604 44.9115C65.5604 44.2738 65.7009 43.7082 65.9818 43.2147C66.2627 42.7212 66.6461 42.3416 67.132 42.0759C67.6179 41.8102 68.1607 41.6773 68.7605 41.6773C69.3603 41.6773 69.9031 41.8102 70.389 42.0759C70.8749 42.3416 71.2583 42.7212 71.5392 43.2147C71.8201 43.7082 71.9606 44.2738 71.9606 44.9115C71.9606 45.5493 71.8163 46.1149 71.5278 46.6084C71.2393 47.1019 70.8445 47.4853 70.3435 47.7586C69.85 48.0243 69.3033 48.1572 68.7035 48.1572ZM68.7035 47.0297C69.0376 47.0297 69.3489 46.95 69.6374 46.7906C69.9335 46.6312 70.1726 46.392 70.3548 46.0731C70.5371 45.7543 70.6282 45.3671 70.6282 44.9115C70.6282 44.456 70.5408 44.0726 70.3662 43.7613C70.1916 43.4425 69.96 43.2033 69.6715 43.0439C69.383 42.8844 69.0718 42.8047 68.7377 42.8047C68.4037 42.8047 68.0924 42.8844 67.8039 43.0439C67.523 43.2033 67.299 43.4425 67.132 43.7613C66.965 44.0726 66.8814 44.456 66.8814 44.9115C66.8814 45.5872 67.0523 46.1111 67.3939 46.4831C67.7431 46.8475 68.1797 47.0297 68.7035 47.0297ZM74.5422 42.6908C74.732 42.372 74.9826 42.1252 75.2938 41.9506C75.6127 41.7684 75.9885 41.6773 76.4213 41.6773V43.0211H76.091C75.5823 43.0211 75.1952 43.1502 74.9294 43.4083C74.6713 43.6664 74.5422 44.1144 74.5422 44.7521V48.0547H73.244V41.7798H74.5422V42.6908ZM78.9129 42.6908C79.1027 42.372 79.3532 42.1252 79.6645 41.9506C79.9834 41.7684 80.3592 41.6773 80.7919 41.6773V43.0211H80.4617C79.953 43.0211 79.5658 43.1502 79.3001 43.4083C79.042 43.6664 78.9129 44.1144 78.9129 44.7521V48.0547H77.6146V41.7798H78.9129V42.6908ZM87.7363 44.7635C87.7363 44.9989 87.7212 45.2114 87.6908 45.4012H82.8964C82.9343 45.9023 83.1203 46.3047 83.4544 46.6084C83.7884 46.9121 84.1984 47.0639 84.6843 47.0639C85.3828 47.0639 85.8763 46.7716 86.1648 46.187H87.5655C87.3757 46.764 87.0303 47.2385 86.5292 47.6105C86.0357 47.975 85.4207 48.1572 84.6843 48.1572C84.0845 48.1572 83.5455 48.0243 83.0672 47.7586C82.5965 47.4853 82.2245 47.1057 81.9511 46.6198C81.6854 46.1263 81.5526 45.5569 81.5526 44.9115C81.5526 44.2662 81.6816 43.7006 81.9398 43.2147C82.2055 42.7212 82.5737 42.3416 83.0444 42.0759C83.5227 41.8102 84.0693 41.6773 84.6843 41.6773C85.2765 41.6773 85.8042 41.8064 86.2673 42.0645C86.7304 42.3226 87.091 42.687 87.3491 43.1578C87.6073 43.6209 87.7363 44.1561 87.7363 44.7635ZM86.3812 44.3535C86.3736 43.8752 86.2027 43.4918 85.8687 43.2033C85.5346 42.9148 85.1209 42.7706 84.6274 42.7706C84.1794 42.7706 83.796 42.9148 83.4772 43.2033C83.1583 43.4842 82.9685 43.8676 82.9078 44.3535H86.3812ZM90.5286 42.8389V46.3123C90.5286 46.5476 90.5817 46.7185 90.688 46.8248C90.8019 46.9235 90.9917 46.9728 91.2574 46.9728H92.0546V48.0547H91.0297C90.4451 48.0547 89.9971 47.918 89.6859 47.6447C89.3746 47.3714 89.219 46.9273 89.219 46.3123V42.8389H88.4787V41.7798H89.219V40.2196H90.5286V41.7798H92.0546V42.8389H90.5286ZM95.973 48.1572C95.3808 48.1572 94.8455 48.0243 94.3672 47.7586C93.8889 47.4853 93.5131 47.1057 93.2398 46.6198C92.9665 46.1263 92.8298 45.5569 92.8298 44.9115C92.8298 44.2738 92.9703 43.7082 93.2512 43.2147C93.5321 42.7212 93.9155 42.3416 94.4014 42.0759C94.8873 41.8102 95.4301 41.6773 96.0299 41.6773C96.6297 41.6773 97.1725 41.8102 97.6584 42.0759C98.1443 42.3416 98.5277 42.7212 98.8086 43.2147C99.0895 43.7082 99.23 44.2738 99.23 44.9115C99.23 45.5493 99.0857 46.1149 98.7972 46.6084C98.5087 47.1019 98.1139 47.4853 97.6129 47.7586C97.1194 48.0243 96.5727 48.1572 95.973 48.1572ZM95.973 47.0297C96.307 47.0297 96.6183 46.95 96.9068 46.7906C97.2029 46.6312 97.442 46.392 97.6242 46.0731C97.8065 45.7543 97.8976 45.3671 97.8976 44.9115C97.8976 44.456 97.8103 44.0726 97.6356 43.7613C97.461 43.4425 97.2295 43.2033 96.941 43.0439C96.6525 42.8844 96.3412 42.8047 96.0071 42.8047C95.6731 42.8047 95.3618 42.8844 95.0733 43.0439C94.7924 43.2033 94.5684 43.4425 94.4014 43.7613C94.2344 44.0726 94.1508 44.456 94.1508 44.9115C94.1508 45.5872 94.3217 46.1111 94.6633 46.4831C95.0126 46.8475 95.4491 47.0297 95.973 47.0297ZM101.812 42.6908C102.001 42.372 102.252 42.1252 102.563 41.9506C102.882 41.7684 103.258 41.6773 103.691 41.6773V43.0211H103.36C102.852 43.0211 102.465 43.1502 102.199 43.4083C101.941 43.6664 101.812 44.1144 101.812 44.7521V48.0547H100.513V41.7798H101.812V42.6908ZM104.451 44.8888C104.451 44.2586 104.58 43.7006 104.838 43.2147C105.104 42.7288 105.461 42.353 105.909 42.0873C106.365 41.814 106.866 41.6773 107.412 41.6773C107.906 41.6773 108.335 41.776 108.699 41.9734C109.071 42.1632 109.367 42.4023 109.587 42.6908V41.7798H110.897V48.0547H109.587V47.1209C109.367 47.4169 109.067 47.6637 108.688 47.8611C108.308 48.0585 107.875 48.1572 107.389 48.1572C106.85 48.1572 106.357 48.0205 105.909 47.7472C105.461 47.4663 105.104 47.0791 104.838 46.5856C104.58 46.0845 104.451 45.5189 104.451 44.8888ZM109.587 44.9115C109.587 44.4788 109.496 44.103 109.314 43.7841C109.139 43.4652 108.908 43.2223 108.619 43.0553C108.331 42.8882 108.02 42.8047 107.686 42.8047C107.351 42.8047 107.04 42.8882 106.752 43.0553C106.463 43.2147 106.228 43.4539 106.046 43.7727C105.871 44.084 105.784 44.456 105.784 44.8888C105.784 45.3215 105.871 45.7011 106.046 46.0276C106.228 46.354 106.463 46.6046 106.752 46.7792C107.048 46.9462 107.359 47.0297 107.686 47.0297C108.02 47.0297 108.331 46.9462 108.619 46.7792C108.908 46.6122 109.139 46.3692 109.314 46.0504C109.496 45.7239 109.587 45.3443 109.587 44.9115ZM116.859 40.1399V48.0547H115.56V40.1399H116.859ZM126.159 41.6773C126.653 41.6773 127.093 41.7798 127.48 41.9848C127.875 42.1898 128.182 42.4934 128.403 42.8958C128.63 43.2982 128.744 43.7841 128.744 44.3535V48.0547H127.457V44.5471C127.457 43.9853 127.317 43.5563 127.036 43.2603C126.755 42.9566 126.372 42.8047 125.886 42.8047C125.4 42.8047 125.013 42.9566 124.724 43.2603C124.443 43.5563 124.303 43.9853 124.303 44.5471V48.0547H123.016V44.5471C123.016 43.9853 122.876 43.5563 122.595 43.2603C122.314 42.9566 121.93 42.8047 121.444 42.8047C120.959 42.8047 120.571 42.9566 120.283 43.2603C120.002 43.5563 119.861 43.9853 119.861 44.5471V48.0547H118.563V41.7798H119.861V42.4972C120.074 42.2391 120.344 42.0379 120.67 41.8937C120.997 41.7494 121.346 41.6773 121.718 41.6773C122.219 41.6773 122.667 41.7836 123.062 41.9962C123.456 42.2087 123.76 42.5162 123.973 42.9186C124.162 42.539 124.459 42.2391 124.861 42.0189C125.263 41.7912 125.696 41.6773 126.159 41.6773ZM133.118 48.1572C132.526 48.1572 131.991 48.0243 131.512 47.7586C131.034 47.4853 130.658 47.1057 130.385 46.6198C130.112 46.1263 129.975 45.5569 129.975 44.9115C129.975 44.2738 130.115 43.7082 130.396 43.2147C130.677 42.7212 131.061 42.3416 131.546 42.0759C132.032 41.8102 132.575 41.6773 133.175 41.6773C133.775 41.6773 134.318 41.8102 134.804 42.0759C135.289 42.3416 135.673 42.7212 135.954 43.2147C136.235 43.7082 136.375 44.2738 136.375 44.9115C136.375 45.5493 136.231 46.1149 135.942 46.6084C135.654 47.1019 135.259 47.4853 134.758 47.7586C134.264 48.0243 133.718 48.1572 133.118 48.1572ZM133.118 47.0297C133.452 47.0297 133.763 46.95 134.052 46.7906C134.348 46.6312 134.587 46.392 134.769 46.0731C134.952 45.7543 135.043 45.3671 135.043 44.9115C135.043 44.456 134.955 44.0726 134.781 43.7613C134.606 43.4425 134.375 43.2033 134.086 43.0439C133.798 42.8844 133.486 42.8047 133.152 42.8047C132.818 42.8047 132.507 42.8844 132.218 43.0439C131.937 43.2033 131.714 43.4425 131.546 43.7613C131.379 44.0726 131.296 44.456 131.296 44.9115C131.296 45.5872 131.467 46.1111 131.808 46.4831C132.158 46.8475 132.594 47.0297 133.118 47.0297ZM138.957 42.7136C139.177 42.4099 139.477 42.1632 139.856 41.9734C140.244 41.776 140.673 41.6773 141.143 41.6773C141.697 41.6773 142.199 41.8102 142.647 42.0759C143.094 42.3416 143.447 42.7212 143.706 43.2147C143.964 43.7006 144.093 44.2586 144.093 44.8888C144.093 45.5189 143.964 46.0845 143.706 46.5856C143.447 47.0791 143.091 47.4663 142.635 47.7472C142.187 48.0205 141.69 48.1572 141.143 48.1572C140.657 48.1572 140.225 48.0623 139.845 47.8725C139.473 47.6827 139.177 47.4397 138.957 47.1436V48.0547H137.658V39.6274H138.957V42.7136ZM142.772 44.8888C142.772 44.456 142.681 44.084 142.498 43.7727C142.324 43.4539 142.088 43.2147 141.792 43.0553C141.504 42.8882 141.193 42.8047 140.859 42.8047C140.532 42.8047 140.221 42.8882 139.925 43.0553C139.636 43.2223 139.401 43.4652 139.219 43.7841C139.044 44.103 138.957 44.4788 138.957 44.9115C138.957 45.3443 139.044 45.7239 139.219 46.0504C139.401 46.3692 139.636 46.6122 139.925 46.7792C140.221 46.9462 140.532 47.0297 140.859 47.0297C141.193 47.0297 141.504 46.9462 141.792 46.7792C142.088 46.6046 142.324 46.354 142.498 46.0276C142.681 45.7011 142.772 45.3215 142.772 44.8888ZM146.037 40.9484C145.802 40.9484 145.604 40.8687 145.445 40.7093C145.286 40.5499 145.206 40.3525 145.206 40.1171C145.206 39.8818 145.286 39.6844 145.445 39.5249C145.604 39.3655 145.802 39.2858 146.037 39.2858C146.265 39.2858 146.459 39.3655 146.618 39.5249C146.777 39.6844 146.857 39.8818 146.857 40.1171C146.857 40.3525 146.777 40.5499 146.618 40.7093C146.459 40.8687 146.265 40.9484 146.037 40.9484ZM146.675 41.7798V48.0547H145.377V41.7798H146.675ZM149.678 39.6274V48.0547H148.379V39.6274H149.678ZM152.043 40.9484C151.807 40.9484 151.61 40.8687 151.45 40.7093C151.291 40.5499 151.211 40.3525 151.211 40.1171C151.211 39.8818 151.291 39.6844 151.45 39.5249C151.61 39.3655 151.807 39.2858 152.043 39.2858C152.27 39.2858 152.464 39.3655 152.623 39.5249C152.783 39.6844 152.863 39.8818 152.863 40.1171C152.863 40.3525 152.783 40.5499 152.623 40.7093C152.464 40.8687 152.27 40.9484 152.043 40.9484ZM152.68 41.7798V48.0547H151.382V41.7798H152.68ZM153.952 44.8888C153.952 44.2586 154.081 43.7006 154.339 43.2147C154.605 42.7288 154.962 42.353 155.41 42.0873C155.865 41.814 156.366 41.6773 156.913 41.6773C157.407 41.6773 157.836 41.776 158.2 41.9734C158.572 42.1632 158.868 42.4023 159.088 42.6908V41.7798H160.398V48.0547H159.088V47.1209C158.868 47.4169 158.568 47.6637 158.189 47.8611C157.809 48.0585 157.376 48.1572 156.89 48.1572C156.351 48.1572 155.858 48.0205 155.41 47.7472C154.962 47.4663 154.605 47.0791 154.339 46.5856C154.081 46.0845 153.952 45.5189 153.952 44.8888ZM159.088 44.9115C159.088 44.4788 158.997 44.103 158.815 43.7841C158.64 43.4652 158.409 43.2223 158.12 43.0553C157.832 42.8882 157.52 42.8047 157.186 42.8047C156.852 42.8047 156.541 42.8882 156.253 43.0553C155.964 43.2147 155.729 43.4539 155.547 43.7727C155.372 44.084 155.285 44.456 155.285 44.8888C155.285 45.3215 155.372 45.7011 155.547 46.0276C155.729 46.354 155.964 46.6046 156.253 46.7792C156.549 46.9462 156.86 47.0297 157.186 47.0297C157.52 47.0297 157.832 46.9462 158.12 46.7792C158.409 46.6122 158.64 46.3692 158.815 46.0504C158.997 45.7239 159.088 45.3443 159.088 44.9115ZM158.564 40.0943L156.048 41.3356V40.379L158.564 38.9897V40.0943ZM163.401 42.6908C163.591 42.372 163.842 42.1252 164.153 41.9506C164.472 41.7684 164.848 41.6773 165.28 41.6773V43.0211H164.95C164.441 43.0211 164.054 43.1502 163.789 43.4083C163.53 43.6664 163.401 44.1144 163.401 44.7521V48.0547H162.103V41.7798H163.401V42.6908ZM167.134 40.9484C166.899 40.9484 166.702 40.8687 166.542 40.7093C166.383 40.5499 166.303 40.3525 166.303 40.1171C166.303 39.8818 166.383 39.6844 166.542 39.5249C166.702 39.3655 166.899 39.2858 167.134 39.2858C167.362 39.2858 167.556 39.3655 167.715 39.5249C167.875 39.6844 167.954 39.8818 167.954 40.1171C167.954 40.3525 167.875 40.5499 167.715 40.7093C167.556 40.8687 167.362 40.9484 167.134 40.9484ZM167.772 41.7798V48.0547H166.474V41.7798H167.772ZM169.044 44.8888C169.044 44.2586 169.173 43.7006 169.431 43.2147C169.697 42.7288 170.054 42.353 170.501 42.0873C170.957 41.814 171.458 41.6773 172.005 41.6773C172.498 41.6773 172.927 41.776 173.292 41.9734C173.664 42.1632 173.96 42.4023 174.18 42.6908V41.7798H175.489V48.0547H174.18V47.1209C173.96 47.4169 173.66 47.6637 173.28 47.8611C172.901 48.0585 172.468 48.1572 171.982 48.1572C171.443 48.1572 170.949 48.0205 170.501 47.7472C170.054 47.4663 169.697 47.0791 169.431 46.5856C169.173 46.0845 169.044 45.5189 169.044 44.8888ZM174.18 44.9115C174.18 44.4788 174.089 44.103 173.907 43.7841C173.732 43.4652 173.5 43.2223 173.212 43.0553C172.923 42.8882 172.612 42.8047 172.278 42.8047C171.944 42.8047 171.633 42.8882 171.344 43.0553C171.056 43.2147 170.82 43.4539 170.638 43.7727C170.463 44.084 170.376 44.456 170.376 44.8888C170.376 45.3215 170.463 45.7011 170.638 46.0276C170.82 46.354 171.056 46.6046 171.344 46.7792C171.64 46.9462 171.952 47.0297 172.278 47.0297C172.612 47.0297 172.923 46.9462 173.212 46.7792C173.5 46.6122 173.732 46.3692 173.907 46.0504C174.089 45.7239 174.18 45.3443 174.18 44.9115Z" fill="#FDFDFD"/>
<path d="M3.97461 46.3286H42.025" stroke="#FDFDFD" stroke-width="2.85378" stroke-miterlimit="10" stroke-linecap="round" stroke-linejoin="round"/>
<path d="M5.78223 46.3286L5.87735 23.4414C5.87735 22.2808 6.42908 21.1774 7.34229 20.4544L20.6599 10.0857C22.0297 9.02027 23.9513 9.02027 25.3401 10.0857L38.6577 20.4354C39.59 21.1583 40.1227 22.2618 40.1227 23.4414V46.3286" stroke="#FDFDFD" stroke-width="2.85378" stroke-miterlimit="10" stroke-linejoin="round"/>
<path d="M19.1949 35.3892V38.243M20.1461 18.7422H25.8537M29.6587 25.401H16.3411C14.762 25.401 13.4873 26.6757 13.4873 28.2548V46.3287H32.5125V28.2548C32.5125 26.6757 31.2378 25.401 29.6587 25.401Z" stroke="#FDFDFD" stroke-width="2.85378" stroke-miterlimit="10" stroke-linecap="round" stroke-linejoin="round"/>
</svg>