<svg width="15" height="15" viewBox="0 0 15 15" fill="none" xmlns="http://www.w3.org/2000/svg">
<path d="M7.4998 8.39365C7.75588 8.39365 8.00945 8.34321 8.24604 8.24522C8.48262 8.14722 8.69759 8.00358 8.87866 7.82251C9.05974 7.64144 9.20337 7.42647 9.30137 7.18988C9.39937 6.9533 9.4498 6.69973 9.4498 6.44365C9.4498 6.18757 9.39937 5.934 9.30137 5.69742C9.20337 5.46083 9.05974 5.24587 8.87866 5.06479C8.69759 4.88372 8.48262 4.74008 8.24604 4.64209C8.00945 4.54409 7.75588 4.49365 7.4998 4.49365C6.98263 4.49365 6.48664 4.6991 6.12095 5.06479C5.75525 5.43049 5.5498 5.92648 5.5498 6.44365C5.5498 6.96082 5.75525 7.45681 6.12095 7.82251C6.48664 8.18821 6.98263 8.39365 7.4998 8.39365Z" fill="#2E9CA3" stroke="#2E9CA3" stroke-width="1.5"/>
<path d="M2.26207 5.30625C3.49332 -0.106248 11.5121 -0.0999983 12.7371 5.3125C13.4558 8.4875 11.4808 11.175 9.74957 12.8375C9.14462 13.421 8.33692 13.747 7.49645 13.747C6.65598 13.747 5.84828 13.421 5.24332 12.8375C3.51832 11.175 1.54332 8.48125 2.26207 5.30625V5.30625Z" stroke="#2E9CA3" stroke-width="1.5"/>
</svg>